<svg version="1.1" xmlns="http://www.w3.org/2000/svg" viewBox="0 0 400 350" xml:space="preserve">
    <circle fill="none" stroke="#202427" stroke-width="4" stroke-miterlimit="10" cx="70.543" cy="253.213" r="65.487"/>
    <path fill="none" stroke="#202427" stroke-width="4" stroke-miterlimit="10" d="M204.115,134.744
        c-36.169,0-65.489-29.321-65.489-65.487c0-36.168,29.32-65.488,65.489-65.488c36.166,0,65.486,29.321,65.486,65.488
        C269.601,105.423,240.28,134.744,204.115,134.744z"/>
    <circle fill="none" stroke="#202427" stroke-width="4" stroke-miterlimit="10" cx="329.568" cy="253.213" r="65.487"/>
    <path fill="#202427" d="M230.313,65.017c0.965,1.304,0.948,3.146-0.14,4.444l-12.042,14.34c-1.749,2.08-5.083,1.543-6.09-0.979
        l-5.293-13.274c-0.112-0.282-0.306-0.567-0.552-0.833l3.308,24.966h-28.315l3.217-25.025l0,0c-0.232,0.266-0.413,0.553-0.515,0.842
        l-7.221,20.276c-0.666,1.87-2.72,2.846-4.589,2.179c-1.871-0.665-2.847-2.72-2.18-4.589l7.221-20.277
        c1.402-3.945,5.625-6.942,9.806-6.942h16.573c4.115,0,8.403,2.927,9.923,6.742l3.156,7.915l8.088-9.96
        c1.147-1.363,3.089-1.663,4.574-0.787l12.937-16.283l0.445-0.562l1.127,0.892l-0.449,0.563L230.313,65.017z M196.043,57.748
        c5.291,0,9.581-4.29,9.581-9.582c0-5.292-4.29-9.583-9.581-9.583c-5.291,0-9.583,4.291-9.583,9.583
        C186.46,53.458,190.753,57.748,196.043,57.748z"/>
    <path fill-rule="evenodd" clip-rule="evenodd" fill="#202427" d="M73.485,260.453c0,7.902,0.001,15.671,0,23.439
        c0,1.667-0.869,2.755-2.48,2.831c-1.829,0.089-3.671,0.073-5.501-0.022c-1.372-0.069-2.31-1.148-2.313-2.52
        c-0.013-7.536-0.006-15.071-0.001-22.608c0-0.338,0.042-0.678,0.072-1.12c-0.516,0-0.997,0.001-1.477,0
        c-2.565-0.006-4.015-1.45-4.015-3.996c0.001-4.995,0-9.99,0-14.986c0-2.356,1.414-3.884,3.782-3.907
        c4.525-0.045,9.051-0.048,13.577,0.001c2.369,0.025,3.764,1.546,3.764,3.917c-0.001,5.06,0,10.119-0.001,15.179
        c-0.001,2.248-1.502,3.761-3.764,3.791C74.577,260.46,74.026,260.453,73.485,260.453z M41.022,238.755
        c-2.262,0-4.525-0.023-6.788,0.008c-2.405,0.032-3.999,1.677-3.998,4.058c0.001,4.569-0.001,9.137,0,13.705
        c0,2.121,1.493,3.745,3.606,3.919c0.397,0.031,0.796,0.047,1.224,0.071c0,0.314,0,0.57,0,0.826c0,6.468-0.001,12.936,0,19.403
        c0,1.68,0.974,2.922,2.644,3.048c1.718,0.129,3.459,0.132,5.178,0.007c1.691-0.123,2.691-1.385,2.692-3.084
        c0.002-6.212-0.003-12.424,0.01-18.635c0-0.412-0.113-0.652-0.473-0.866c-1.717-1.018-2.473-2.577-2.473-4.539
        c0-4.398-0.013-8.796,0.007-13.193c0.007-1.565-0.24-3.163,0.578-4.727C42.42,238.755,41.721,238.754,41.022,238.755z
         M80.427,242.863c0.003,4.611-0.002,9.221,0.002,13.832c0.002,1.998-0.815,3.543-2.535,4.571c-0.326,0.194-0.418,0.413-0.411,0.766
        c0.02,1.023,0.008,2.049,0.006,3.073c0,5.232-0.002,10.461,0.002,15.691c0,1.581,1.007,2.864,2.583,2.98
        c1.761,0.129,3.544,0.139,5.304,0.01c1.661-0.121,2.625-1.372,2.625-3.062c0-6.489,0-12.979,0-19.468c0-0.246,0-0.49,0-0.791
        c0.397,0,0.693,0.013,0.988-0.003c2.343-0.133,3.845-1.733,3.845-4.084c0-4.569,0.002-9.137,0-13.705
        c-0.002-2.076-1.504-3.725-3.571-3.886c-0.7-0.056-1.408-0.031-2.113-0.031c-2.388-0.004-4.776-0.003-7.317-0.003
        C80.569,240.127,80.424,241.504,80.427,242.863z M54.757,238.755c-2.369,0.003-4.739-0.038-7.107,0.02
        c-2.26,0.055-3.816,1.726-3.816,3.97c0,4.589-0.001,9.178,0,13.767c0.002,2.164,1.492,3.767,3.655,3.936
        c0.377,0.029,0.755,0.043,1.168,0.065c0,0.306,0,0.56,0,0.815c0,6.51-0.003,13.019,0.001,19.529c0,1.513,1.006,2.807,2.508,2.906
        c1.844,0.121,3.709,0.11,5.554-0.01c1.415-0.09,2.446-1.399,2.447-2.83c0.006-6.318,0.007-12.636-0.014-18.954
        c0-0.233-0.187-0.563-0.386-0.686c-1.765-1.088-2.539-2.683-2.536-4.718c0.008-4.439-0.004-8.879,0.007-13.319
        c0.003-1.483-0.189-2.993,0.589-4.491C56.034,238.755,55.395,238.754,54.757,238.755z M94.262,242.049
        c0.032,4.802-0.011,9.606,0.026,14.408c0.015,2.126-0.765,3.756-2.597,4.873c-0.174,0.106-0.334,0.394-0.336,0.598
        c-0.017,6.339-0.023,12.681-0.008,19.02c0.002,1.417,1.077,2.716,2.481,2.811c1.781,0.123,3.585,0.157,5.365,0.035
        c1.7-0.116,2.666-1.365,2.666-3.093c0-6.469,0-12.937,0-19.405c0-0.248,0-0.496,0-0.781c0.54-0.032,1.005-0.042,1.468-0.094
        c1.785-0.201,3.339-1.805,3.35-3.563c0.027-4.824,0.023-9.65,0.002-14.474c-0.008-1.628-1.426-3.235-3.021-3.518
        c-0.334-0.06-0.677-0.105-1.016-0.106c-2.944-0.008-5.887-0.005-8.685-0.005C94.069,239.914,94.254,240.981,94.262,242.049z
         M40.319,236.211c3.339,0,6.054-2.739,6.037-6.089c-0.018-3.32-2.73-5.99-6.07-5.977c-3.342,0.014-6,2.695-5.993,6.042
        C34.302,233.516,36.997,236.213,40.319,236.211z M76.716,230.142c-0.009,3.347,2.716,6.078,6.056,6.069
        c3.319-0.008,6.006-2.713,6.005-6.045c0-3.343-2.669-6.016-6.013-6.019C79.425,224.142,76.726,226.818,76.716,230.142z
         M96.604,224.145c-3.333,0.005-6.034,2.697-6.037,6.016c-0.004,3.333,2.745,6.068,6.082,6.049c3.32-0.017,5.998-2.729,5.987-6.063
        C102.625,226.805,99.947,224.141,96.604,224.145z M47.884,230.125c-0.011,3.339,2.655,6.056,5.968,6.088
        c3.319,0.028,6.068-2.664,6.09-5.966c0.023-3.384-2.635-6.088-6.001-6.099C50.596,224.133,47.895,226.799,47.884,230.125z
         M68.358,236.188c3.323-0.035,6.004-2.744,5.997-6.059c-0.008-3.275-2.718-5.96-6.016-5.964c-3.329-0.003-6.023,2.689-6.019,6.015
        C62.324,233.472,65.089,236.223,68.358,236.188z"/>
    <path fill-rule="evenodd" clip-rule="evenodd" d="M330.635,228.739c10.002,0,20.004,0.002,30.007-0.005
        c1.128,0,2.14,0.248,2.694,1.326c0.232,0.453,0.381,1.004,0.383,1.512c0.019,12.058,0.017,24.115,0.013,36.174
        c0,1.558-0.898,2.571-2.431,2.762c-0.273,0.035-0.552,0.043-0.828,0.043c-19.889,0.001-39.778,0-59.667,0.002
        c-0.893,0-1.769-0.062-2.444-0.741c-0.578-0.584-0.829-1.295-0.828-2.131c0.01-12.036,0.007-24.071,0.009-36.104
        c0-1.644,0.972-2.696,2.6-2.829c0.253-0.02,0.508-0.01,0.764-0.01C310.814,228.739,320.724,228.739,330.635,228.739z
         M360.185,232.271c-19.712,0-39.38,0-59.082,0c0,11.597,0,23.152,0,34.718c19.725,0,39.393,0,59.082,0
        C360.185,255.394,360.185,243.854,360.185,232.271z M287.109,274.768c0.023,1.621,0.836,2.534,2.435,2.72
        c0.298,0.033,0.6,0.026,0.9,0.026c26.798,0.001,53.594,0.001,80.391-0.001c0.368,0,0.741-0.009,1.105-0.062
        c1.256-0.186,1.967-0.819,2.158-2.071c0.109-0.711,0.02-1.453,0.02-2.189c-12.476,0-24.911,0-37.339,0
        c-0.158,1.683-0.172,1.694-1.845,1.694c-2.911,0.001-5.822,0.001-8.733,0c-1.5,0-1.571-0.065-1.678-1.575
        c-0.003-0.039-0.043-0.076-0.083-0.142c-12.403,0-24.823,0-37.331,0C287.108,273.754,287.102,274.261,287.109,274.768z"/>
    <path fill="none" stroke="#202427" stroke-width="3.75" stroke-miterlimit="10" d="M96.793,102.508
        c-27.356,15.419-43.31,43.006-37.781,70.421"/>
    <polygon fill="#202427" points="88.117,90.293 120.583,94.982 100.29,120.757 "/>
    <path fill="none" stroke="#202427" stroke-width="3.75" stroke-miterlimit="10" d="M335.971,148.667
        c-2.91-31.267-21.581-57.092-48.865-63.236"/>
    <path fill="none" stroke="#202427" stroke-width="3.75" stroke-miterlimit="10" d="M154.799,330.2
        c42.053,23.935,91.529,21.102,120.016-10.022"/>
    <polygon fill="#202427" points="319.569,147.668 352.371,147.548 336.076,176.017 "/>
    <polygon fill="#202427" points="165.166,315.074 150.493,344.413 132.42,317.038 "/>
</svg>